<svg id="Layer_1" data-name="Layer 1" xmlns="http://www.w3.org/2000/svg" viewBox="0 0 582.99 390.9"><defs><style>.cls-1{fill:#ff3633;}.cls-2{fill:#565656;opacity:0.7;}.cls-3{fill:#fff;}</style></defs><title>Website Icons</title><circle class="cls-1" cx="387.54" cy="195.45" r="195.45"/><rect class="cls-2" x="359.43" y="117.45" width="12" height="12"/><rect class="cls-2" x="359.43" y="141.45" width="12" height="12"/><rect class="cls-2" x="359.43" y="165.45" width="12" height="12"/><rect class="cls-2" x="359.43" y="189.45" width="12" height="12"/><rect class="cls-2" x="359.43" y="213.45" width="12" height="12"/><rect class="cls-2" x="359.43" y="237.45" width="12" height="12"/><rect class="cls-2" x="359.43" y="261.45" width="12" height="12"/><rect class="cls-2" x="335.45" y="117.45" width="12" height="12"/><rect class="cls-2" x="335.45" y="141.45" width="12" height="12"/><rect class="cls-2" x="335.45" y="165.45" width="12" height="12"/><rect class="cls-2" x="335.45" y="189.45" width="12" height="12"/><rect class="cls-2" x="335.45" y="213.45" width="12" height="12"/><rect class="cls-2" x="335.45" y="237.45" width="12" height="12"/><rect class="cls-2" x="335.45" y="261.45" width="12" height="12"/><rect class="cls-2" x="311.35" y="117.45" width="12" height="12"/><rect class="cls-2" x="311.35" y="141.45" width="12" height="12"/><rect class="cls-2" x="311.35" y="165.45" width="12" height="12"/><rect class="cls-2" x="311.35" y="189.45" width="12" height="12"/><rect class="cls-2" x="311.35" y="213.45" width="12" height="12"/><rect class="cls-2" x="311.35" y="237.45" width="12" height="12"/><rect class="cls-2" x="311.35" y="261.45" width="12" height="12"/><rect class="cls-2" x="287.24" y="117.45" width="12" height="12"/><rect class="cls-2" x="287.24" y="141.45" width="12" height="12"/><rect class="cls-2" x="287.24" y="165.45" width="12" height="12"/><rect class="cls-2" x="287.24" y="189.45" width="12" height="12"/><rect class="cls-2" x="287.24" y="213.45" width="12" height="12"/><rect class="cls-2" x="287.24" y="237.45" width="12" height="12"/><rect class="cls-2" x="287.24" y="261.45" width="12" height="12"/><rect class="cls-2" x="263.14" y="117.45" width="12" height="12"/><rect class="cls-2" x="263.14" y="141.45" width="12" height="12"/><rect class="cls-2" x="263.14" y="165.45" width="12" height="12"/><rect class="cls-2" x="263.14" y="189.45" width="12" height="12"/><rect class="cls-2" x="263.14" y="213.45" width="12" height="12"/><rect class="cls-2" x="263.14" y="237.45" width="12" height="12"/><rect class="cls-2" x="263.14" y="261.45" width="12" height="12"/><rect class="cls-2" x="239.95" y="117.45" width="12" height="12"/><rect class="cls-2" x="239.95" y="141.45" width="12" height="12"/><rect class="cls-2" x="239.95" y="165.45" width="12" height="12"/><rect class="cls-2" x="239.95" y="189.45" width="12" height="12"/><rect class="cls-2" x="239.95" y="213.45" width="12" height="12"/><rect class="cls-2" x="239.95" y="237.45" width="12" height="12"/><rect class="cls-2" x="239.95" y="261.45" width="12" height="12"/><rect class="cls-2" x="215.21" y="117.45" width="12" height="12"/><rect class="cls-2" x="215.21" y="141.45" width="12" height="12"/><rect class="cls-2" x="215.21" y="165.45" width="12" height="12"/><rect class="cls-2" x="215.21" y="189.45" width="12" height="12"/><rect class="cls-2" x="215.21" y="213.45" width="12" height="12"/><rect class="cls-2" x="215.21" y="237.45" width="12" height="12"/><rect class="cls-2" x="215.21" y="261.45" width="12" height="12"/><rect class="cls-2" x="191.4" y="117.45" width="12" height="12"/><rect class="cls-2" x="191.4" y="141.45" width="12" height="12"/><rect class="cls-2" x="191.4" y="165.45" width="12" height="12"/><rect class="cls-2" x="191.4" y="189.45" width="12" height="12"/><rect class="cls-2" x="191.4" y="213.45" width="12" height="12"/><rect class="cls-2" x="191.4" y="237.45" width="12" height="12"/><rect class="cls-2" x="167.4" y="117.45" width="12" height="12"/><rect class="cls-2" x="167.4" y="141.45" width="12" height="12"/><rect class="cls-2" x="167.4" y="165.45" width="12" height="12"/><rect class="cls-2" x="167.4" y="189.45" width="12" height="12"/><rect class="cls-2" x="167.4" y="213.45" width="12" height="12"/><rect class="cls-2" x="167.4" y="237.45" width="12" height="12"/><rect class="cls-2" x="143.4" y="117.45" width="12" height="12"/><rect class="cls-2" x="143.4" y="141.45" width="12" height="12"/><rect class="cls-2" x="143.4" y="165.45" width="12" height="12"/><rect class="cls-2" x="143.4" y="189.45" width="12" height="12"/><rect class="cls-2" x="143.4" y="237.45" width="12" height="12"/><rect class="cls-2" x="119.4" y="117.45" width="12" height="12"/><rect class="cls-2" x="119.4" y="141.45" width="12" height="12"/><rect class="cls-2" x="119.4" y="165.45" width="12" height="12"/><rect class="cls-2" x="119.4" y="189.45" width="12" height="12"/><rect class="cls-2" x="119.4" y="237.45" width="12" height="12"/><rect class="cls-2" x="95.2" y="117.45" width="12" height="12"/><rect class="cls-2" x="95.2" y="141.45" width="12" height="12"/><rect class="cls-2" x="95.2" y="189.45" width="12" height="12"/><rect class="cls-2" x="95.2" y="237.45" width="12" height="12"/><rect class="cls-2" x="71.2" y="117.45" width="12" height="12"/><rect class="cls-2" x="71.2" y="141.45" width="12" height="12"/><rect class="cls-2" x="48.2" y="141.45" width="12" height="12"/><rect class="cls-2" x="24" y="141.45" width="12" height="12"/><rect class="cls-2" x="48.2" y="237.45" width="12" height="12"/><rect class="cls-2" x="24" y="237.45" width="12" height="12"/><rect class="cls-2" y="141.45" width="12" height="12"/><rect class="cls-2" x="71.2" y="189.45" width="12" height="12"/><rect class="cls-2" x="71.2" y="237.45" width="12" height="12"/><path class="cls-3" d="M387.35,177.42c.57-2.19,1.1-4.38,1.71-6.55,1.2-4.3,2.12-8.72,3.75-12.86a11.16,11.16,0,0,1,13-7.15,12.73,12.73,0,0,1,9.93,11.93c.06,4-.2,8-.31,12,0,.73,0,1.46,0,2.19l.63.17c1.32-3.66,2.75-7.28,3.94-11,1.74-5.37,6.93-9.37,12.29-9.26a11.68,11.68,0,0,1,11.2,9.66c.55,3.44-.1,7.11-.45,10.65-.49,4.95-1.21,9.88-1.36,15,1.64-2.84,3.39-5.62,4.87-8.53,3.14-6.17,9.1-9,14.8-6.83a12.6,12.6,0,0,1,7.67,15.62c-4.83,16.68-9.81,33.32-14.5,50-5.06,18-16.3,30.28-33.66,36.78-11.86,4.43-24.07,3.78-36.11.55-15.21-4.08-27.71-12.9-38.7-23.78-10.48-10.37-20.12-21.59-30.69-31.85-6.36-6.16-5.79-15.27-1.13-21.77,3.18-4.43,8-6.6,12.19-5.44a10.45,10.45,0,0,1,3.12,1.5c5.56,3.81,11.09,7.67,16.62,11.52,1.83,1.27,3.51,2.89,5.51,3.75,4.55,1.94,9.43-1,9.37-5.93-.08-6.72-.56-13.45-1.25-20.14-1.07-10.25-2.46-20.47-3.72-30.7-1.27-10.4-2.45-20.81-3.87-31.19-.79-5.73,0-10.78,4.69-14.67,6.72-5.52,16.53-2.3,18.9,6.58,1.6,6,2.4,12.22,3.46,18.36,2.24,13.1,4.41,26.21,6.63,39.32a11.2,11.2,0,0,0,.7,2Z"/></svg>