<svg width="82" height="16" xmlns="http://www.w3.org/2000/svg"><g fill="none" fill-rule="evenodd"><path d="M12.171 13.74l-.797-4.644 3.375-3.289-4.663-.677L8 .904 5.914 5.13l-4.663.677 3.375 3.29-.797 4.644L8 11.548l4.171 2.193zM28.671 13.74l-.797-4.644 3.375-3.289-4.663-.677L24.5.904 22.414 5.13l-4.663.677 3.375 3.29-.797 4.644 4.171-2.193 4.171 2.193zM45.171 13.74l-.797-4.644 3.375-3.289-4.663-.677L41 .904 38.914 5.13l-4.663.677 3.375 3.29-.797 4.644L41 11.548l4.171 2.193zM61.671 13.74l-.797-4.644 3.375-3.289-4.663-.677L57.5.904 55.414 5.13l-4.663.677 3.375 3.29-.797 4.644 4.171-2.193 4.171 2.193z" fill="#FFF" stroke="#FFF" stroke-width=".8"/><path d="M78.038 13.558l-.771-4.496 3.267-3.185-4.515-.656L74 1.13l-2.02 4.09-4.514.657 3.267 3.185-.771 4.496L74 11.435l4.038 2.123z" stroke="#FFF"/><path fill="#FFF" d="M74 1.625v9.844l-4.063 2.125.782-4.407-3.031-3.218 4.343-.844z"/></g></svg>
